<svg width="1200" height="630" viewBox="0 0 1200 630" xmlns="http://www.w3.org/2000/svg">
  <rect width="1200" height="630" fill="#f5e6c8"/>
  <rect width="1200" height="630" fill="#eedab0" opacity="0.45"/>
  <line x1="0" y1="210" x2="1200" y2="210" stroke="#c8934a" stroke-width="0.4" opacity="0.18"/>
  <line x1="0" y1="420" x2="1200" y2="420" stroke="#c8934a" stroke-width="0.4" opacity="0.18"/>
  <line x1="0" y1="105" x2="1200" y2="105" stroke="#c8934a" stroke-width="0.3" opacity="0.12"/>
  <line x1="0" y1="315" x2="1200" y2="315" stroke="#c8934a" stroke-width="0.3" opacity="0.12"/>
  <line x1="0" y1="525" x2="1200" y2="525" stroke="#c8934a" stroke-width="0.3" opacity="0.12"/>
  <circle cx="920" cy="315" r="290" fill="none" stroke="#b87333" stroke-width="1.2" opacity="0.18"/>
  <circle cx="920" cy="315" r="218" fill="none" stroke="#b87333" stroke-width="1" opacity="0.22"/>
  <circle cx="920" cy="315" r="146" fill="none" stroke="#c8934a" stroke-width="1.2" opacity="0.28"/>
  <circle cx="920" cy="315" r="74" fill="#c8934a" opacity="0.10"/>
  <circle cx="920" cy="315" r="36" fill="#b87333" opacity="0.14"/>
  <line x1="920" y1="25" x2="920" y2="605" stroke="#b87333" stroke-width="0.7" opacity="0.14"/>
  <line x1="630" y1="315" x2="1200" y2="315" stroke="#b87333" stroke-width="0.7" opacity="0.14"/>
  <line x1="1050" y1="0" x2="1200" y2="150" stroke="#b87333" stroke-width="0.5" opacity="0.12"/>
  <line x1="1100" y1="0" x2="1200" y2="100" stroke="#b87333" stroke-width="0.4" opacity="0.1"/>
  <line x1="1000" y1="0" x2="1200" y2="200" stroke="#b87333" stroke-width="0.4" opacity="0.1"/>
  <rect x="0" y="0" width="6" height="630" fill="#b87333"/>
  <rect x="70" y="62" width="130" height="34" rx="17" fill="none" stroke="#b87333" stroke-width="1.5" opacity="0.7"/>
  <text x="135" y="84" font-family="Georgia, serif" font-size="13" fill="rgba(90,45,10,0.55)" text-anchor="middle" letter-spacing="3" font-weight="600">COPPER</text>
  <text x="70" y="168" font-family="Courier New, monospace" font-size="18" fill="#8b4e18" letter-spacing="5" opacity="0.75">NYSE: FCX</text>
  <text x="70" y="262" font-family="Georgia, serif" font-size="68" font-weight="700" fill="#1a0e04" letter-spacing="-1.5">Freeport-McMoRan</text>
  <text x="72" y="320" font-family="Georgia, serif" font-size="30" fill="#7a3e10" letter-spacing="0.3">The Central Bank of Copper</text>
  <line x1="70" y1="350" x2="540" y2="350" stroke="#b87333" stroke-width="1.5" opacity="0.4"/>
  <text x="70" y="392" font-family="Georgia, serif" font-size="19" fill="#5c2e08" opacity="0.7">World's largest publicly traded copper producer</text>
  <line x1="70" y1="578" x2="1130" y2="578" stroke="#b87333" stroke-width="0.8" opacity="0.25"/>
  <text x="70" y="608" font-family="Georgia, serif" font-size="14" fill="rgba(90,45,10,0.55)" letter-spacing="2">INVESTMENT THESIS  ·  APRIL 2026</text>
  <text x="1130" y="608" font-family="Georgia, serif" font-size="14" fill="rgba(90,45,10,0.55)" text-anchor="end" letter-spacing="2">EZPONDA CAPITAL</text>
</svg>
